<svg id="Layer_1" data-name="Layer 1" xmlns="http://www.w3.org/2000/svg" viewBox="0 0 87.01 87.01"><path d="M46.88,79.17a2,2,0,0,0,1.33.55s0,0,0,0h0a2,2,0,0,0,1.74-1L70.58,58.17a2,2,0,0,0,0-2.8,2,2,0,0,0-2.82,0L50.37,72.78V15.4a2.1,2.1,0,0,0-2.08-2.08,2.06,2.06,0,0,0-2.07,2.08V77.73h0a2.14,2.14,0,0,0,.53,1.32s0,0,0,0v0s0,0,0,0S46.88,79.16,46.88,79.17ZM37.21,13.89a2,2,0,0,0-1.29-.55h-.08a2.06,2.06,0,0,0-1.74,1L13.59,34.89a2,2,0,0,0,2.78,2.81L33.76,20.29V77.67a2.08,2.08,0,0,0,4.15,0V15.37s0,0,0,0h0A1.9,1.9,0,0,0,37.33,14v0s0,0,0,0,0,0,0,0Z" style="fill:#727272;fill-rule:evenodd"/></svg>