<svg id="Layer_1" data-name="Layer 1" xmlns="http://www.w3.org/2000/svg" viewBox="0 0 57.73 57.73"><path d="M12.4,9.39H50.07a1.45,1.45,0,1,0,0-2.9H12.4a1.45,1.45,0,0,0,0,2.9Zm26.08,8.69H12.4a1.45,1.45,0,0,0,0,2.9H38.48a1.45,1.45,0,0,0,0-2.9ZM12.4,29.67H50.07a1.45,1.45,0,1,1,0,2.89H12.4a1.45,1.45,0,1,1,0-2.89ZM34.14,41.26H12.4a1.45,1.45,0,1,0,0,2.9H34.14a1.45,1.45,0,0,0,0-2.9Z" style="fill:#727272;fill-rule:evenodd"/><line x1="-0.34" y1="-0.31" x2="-0.34" y2="51.85" style="fill:none;stroke:#727272"/></svg>