<svg id="Layer_1" data-name="Layer 1" xmlns="http://www.w3.org/2000/svg" viewBox="0 0 84.31 84.31"><path d="M75,66.48a8.66,8.66,0,0,1-8.66,8.65H18.74a8.66,8.66,0,0,1-8.65-8.65V18.88a8.67,8.67,0,0,1,8.65-8.66h47.6A8.67,8.67,0,0,1,75,18.88Zm-4.33-47.6a4.33,4.33,0,0,0-4.33-4.33H18.74a4.34,4.34,0,0,0-4.33,4.33v47.6a4.34,4.34,0,0,0,4.33,4.33h47.6a4.33,4.33,0,0,0,4.33-4.33Zm-26,26h11a2.19,2.19,0,0,0,0-4.36h-11v-11a2.17,2.17,0,0,0-4.33,0v11h-11a2.19,2.19,0,0,0,0,4.36h11v11a2.17,2.17,0,0,0,4.33,0Z" style="fill:#727272;fill-rule:evenodd"/></svg>