<svg id="Layer_1" data-name="Layer 1" xmlns="http://www.w3.org/2000/svg" viewBox="0 0 58.75 58.75"><path d="M35.66,13.73c0-.79.24-1.45.53-1.45H49.63c.29,0,.52.66.52,1.45s-.23,1.45-.52,1.45H36.19C35.9,15.18,35.66,14.53,35.66,13.73Z" style="fill:#727272;fill-rule:evenodd"/><path d="M42.91,6.49c.81,0,1.45.23,1.45.52V20.46c0,.29-.64.52-1.45.52s-1.45-.23-1.45-.52V7C41.46,6.72,42.1,6.49,42.91,6.49Z" style="fill:#727272;fill-rule:evenodd"/><path d="M41.75,44.16H28.36V42.55a14.27,14.27,0,0,0,2.93-.45c.78-.23,1.19-.51,1.19-.84a3.71,3.71,0,0,0-.06-.5,2.34,2.34,0,0,0-.12-.52L29.61,33H18.36c-.4,1.06-.75,2-1,2.76s-.49,1.51-.69,2.18a15.68,15.68,0,0,0-.41,1.58,4.68,4.68,0,0,0-.12,1c0,.6.47,1.07,1.42,1.4a11.67,11.67,0,0,0,3.22.59v1.61H8.66V42.55a10.1,10.1,0,0,0,1.48-.25,4.7,4.7,0,0,0,1.44-.59A5.48,5.48,0,0,0,13,40.45a8.78,8.78,0,0,0,1-1.86q2.43-6,5.33-13.58t5.22-13.43H26.3L37,39.29a6.49,6.49,0,0,0,.75,1.43A5.27,5.27,0,0,0,39,41.78a4.92,4.92,0,0,0,1.36.54,6.54,6.54,0,0,0,1.39.23ZM28.8,31,23.93,18.58,19.15,31Z" style="fill:#727272"/></svg>