<svg id="Layer_1" data-name="Layer 1" xmlns="http://www.w3.org/2000/svg" viewBox="0 0 60 60"><path d="M41.84,13.73c0-.79.23-1.45.52-1.45H55.8c.29,0,.53.66.53,1.45s-.24,1.45-.53,1.45H42.36C42.07,15.18,41.84,14.53,41.84,13.73Z" style="fill:#727272;fill-rule:evenodd"/><path d="M42.13,44.16H28.74V42.55a14.27,14.27,0,0,0,2.93-.45c.78-.23,1.18-.51,1.18-.84a3.5,3.5,0,0,0-.05-.5,2.34,2.34,0,0,0-.12-.52L30,33H18.74c-.4,1.06-.75,2-1,2.76S17.21,37.31,17,38s-.31,1.17-.4,1.58a4.68,4.68,0,0,0-.12,1c0,.6.47,1.07,1.42,1.4a11.67,11.67,0,0,0,3.22.59v1.61H9V42.55a9.79,9.79,0,0,0,1.47-.25A4.76,4.76,0,0,0,12,41.71a5.42,5.42,0,0,0,1.39-1.26,8.33,8.33,0,0,0,1-1.86q2.43-6,5.33-13.58t5.22-13.43h1.79L37.4,39.29a6.93,6.93,0,0,0,.76,1.43,5.42,5.42,0,0,0,1.21,1.06,5.13,5.13,0,0,0,1.37.54,6.54,6.54,0,0,0,1.39.23ZM29.17,31,24.31,18.58,19.53,31Z" style="fill:#727272"/></svg>