<svg id="Layer_1" data-name="Layer 1" xmlns="http://www.w3.org/2000/svg" viewBox="0 0 84.93 84.93"><path d="M68.05,27.12V73.37A4.63,4.63,0,0,1,63.43,78H21.8a4.63,4.63,0,0,1-4.62-4.63V27.12a4.63,4.63,0,0,1-4.63-4.62V17.87a4.63,4.63,0,0,1,4.63-4.62H31.05V6.31A2.31,2.31,0,0,1,33.37,4h18.5a2.33,2.33,0,0,1,2.31,2.31v6.94H68.05a4.63,4.63,0,0,1,4.63,4.62V22.5A4.63,4.63,0,0,1,68.05,27.12ZM21.8,29.44V71.06a2.3,2.3,0,0,0,2.32,2.31h37a2.32,2.32,0,0,0,2.31-2.31V27.12H21.8ZM35.68,8.62H49.55v4.63H35.68Zm30.06,9.25H19.49a2.32,2.32,0,0,0,0,4.63H65.74a2.32,2.32,0,0,0,0-4.63ZM31.05,68.75h4.63V36.37H31.05Zm13.88,0H40.3V36.37h4.63Zm4.62,0h4.63V36.37H49.55Z" style="fill:#727272;fill-rule:evenodd"/></svg>